<?xml version="1.0" standalone="no"?>
<!DOCTYPE svg PUBLIC "-//W3C//DTD SVG 1.1//EN" "http://www.w3.org/Graphics/SVG/1.1/DTD/svg11.dtd" >
<svg xmlns="http://www.w3.org/2000/svg">
<metadata>
Created by FontForge 20120731 at Tue Mar 28 11:51:35 2017
 By admin
</metadata>
<defs>
<font id="iconfont" horiz-adv-x="1024" >
  <font-face 
    font-family="iconfont"
    font-weight="500"
    font-stretch="normal"
    units-per-em="1024"
    panose-1="2 0 6 3 0 0 0 0 0 0"
    ascent="896"
    descent="-128"
    x-height="792"
    bbox="44 -205.042 956 896"
    underline-thickness="0"
    underline-position="0"
    unicode-range="U+0078-E6C0"
  />
<missing-glyph 
 />
    <glyph glyph-name=".notdef" 
 />
    <glyph glyph-name=".notdef" 
 />
    <glyph glyph-name=".null" horiz-adv-x="0" 
 />
    <glyph glyph-name="nonmarkingreturn" horiz-adv-x="341" 
 />
    <glyph glyph-name="x" unicode="x" horiz-adv-x="1001" 
d="M281 543q-27 -1 -53 -1h-83q-18 0 -36.5 -6t-32.5 -18.5t-23 -32t-9 -45.5v-76h912v41q0 16 -0.5 30t-0.5 18q0 13 -5 29t-17 29.5t-31.5 22.5t-49.5 9h-133v-97h-438v97zM955 310v-52q0 -23 0.5 -52t0.5 -58t-10.5 -47.5t-26 -30t-33 -16t-31.5 -4.5q-14 -1 -29.5 -0.5
t-29.5 0.5h-32l-45 128h-439l-44 -128h-29h-34q-20 0 -45 1q-25 0 -41 9.5t-25.5 23t-13.5 29.5t-4 30v167h911zM163 247q-12 0 -21 -8.5t-9 -21.5t9 -21.5t21 -8.5q13 0 22 8.5t9 21.5t-9 21.5t-22 8.5zM316 123q-8 -26 -14 -48q-5 -19 -10.5 -37t-7.5 -25t-3 -15t1 -14.5
t9.5 -10.5t21.5 -4h37h67h81h80h64h36q23 0 34 12t2 38q-5 13 -9.5 30.5t-9.5 34.5q-5 19 -11 39h-368zM336 498v228q0 11 2.5 23t10 21.5t20.5 15.5t34 6h188q31 0 51.5 -14.5t20.5 -52.5v-227h-327z" />
    <glyph glyph-name="1" unicode="&#xe620;" 
d="M672 -72l52 293l72 60l30 -34q15 -18 15 -40q0 -11 -3 -30l-40 -224q-5 -25 -9.5 -33t-22.5 -24l-42 -35zM751 376l51 293l85 66l22 -30q14 -18 14 -36q0 -10 -3 -25l-39 -221q-8 -47 -38 -73l-41 -33z" />
    <glyph glyph-name="2" unicode="&#xe621;" 
d="M381 230l-54 -302l-81 -65l-26 35q-12 15 -12 35q0 10 3 22l40 229q6 33 26 50l56 50zM349 -83h303l55 -71l-34 -29q-17 -14 -29.5 -18t-42.5 -4h-253q-46 -1 -67 22l-21 27zM427 363h303l51 -62l-72 -60h-303l-52 60zM787 687h-305l-55 64l35 33q26 24 58 24h275
q33 0 53 -24l24 -31zM751 376l51 293l85 66l22 -30q14 -18 14 -36q0 -10 -3 -25l-39 -221q-8 -47 -38 -73l-41 -33z" />
    <glyph glyph-name="5" unicode="&#xe624;" 
d="M349 -83h303l55 -71l-34 -29q-17 -14 -29.5 -18t-42.5 -4h-253q-46 -1 -67 22l-21 27zM407 733l51 -66l-51 -291l-69 -56l-29 32q-19 23 -19 46q0 9 3 27l36 206zM427 363h303l51 -62l-72 -60h-303l-52 60zM787 687h-305l-55 64l35 33q26 24 58 24h275q33 0 53 -24
l24 -31zM672 -72l52 293l72 60l30 -34q15 -18 15 -40q0 -11 -3 -30l-40 -224q-5 -25 -9.5 -33t-22.5 -24l-42 -35z" />
    <glyph glyph-name="7" unicode="&#xe626;" 
d="M787 687h-305l-55 64l35 33q26 24 58 24h275q33 0 53 -24l24 -31zM672 -72l52 293l72 60l30 -34q15 -18 15 -40q0 -11 -3 -30l-40 -224q-5 -25 -9.5 -33t-22.5 -24l-42 -35zM751 376l51 293l85 66l22 -30q14 -18 14 -36q0 -10 -3 -25l-39 -221q-8 -47 -38 -73l-41 -33z
" />
    <glyph glyph-name="8" unicode="&#xe627;" 
d="M381 230l-54 -302l-81 -65l-26 35q-12 15 -12 35q0 10 3 22l40 229q6 33 26 50l56 50zM349 -83h303l55 -71l-34 -29q-17 -14 -29.5 -18t-42.5 -4h-253q-46 -1 -67 22l-21 27zM458 667l-51 -291l-69 -56l-29 32q-19 23 -19 46q0 9 3 27l36 206q7 35 36 63l42 39zM427 363
h303l51 -62l-72 -60h-303l-52 60zM787 687h-305l-55 64l35 33q26 24 58 24h275q33 0 53 -24l24 -31zM672 -72l52 293l72 60l30 -34q15 -18 15 -40q0 -11 -3 -30l-40 -224q-5 -25 -9.5 -33t-22.5 -24l-42 -35zM751 376l51 293l85 66l22 -30q14 -18 14 -36q0 -10 -3 -25
l-39 -221q-8 -47 -38 -73l-41 -33z" />
    <glyph glyph-name="11" unicode="&#xe601;" 
d="M670 372v235l88 88v-346l-33 -33zM758 249v-344l-88 88v235l55 56z" />
    <glyph glyph-name="21" unicode="&#xe602;" 
d="M354 229v-235l-88 -89v345l33 34zM742 711l-87 -88h-286l-87 88h460zM742 -111h-460l87 88h286zM666 344l44 -44l-44 -44h-308l-43 44l43 44h308zM670 372v236l88 88v-346l-32 -33z" />
    <glyph glyph-name="3" unicode="&#xe603;" 
d="M734 711l-87 -88h-286l-87 88h460zM734 -111h-460l87 88h286zM657 344l45 -44l-45 -44h-307l-43 44l43 44h307zM662 372v236l88 88v-346l-32 -33zM750 250v-345l-88 89v235l56 55z" />
    <glyph glyph-name="6" unicode="&#xe606;" 
d="M266 350v346l88 -88v-236l-55 -55zM354 229v-235l-88 -89v345l32 34zM742 711l-87 -88h-286l-87 88h460zM742 -111h-460l87 88h286zM666 344l44 -44l-44 -44h-308l-43 44l43 44h308zM758 250v-345l-88 89v235l56 55z" />
    <glyph glyph-name="81" unicode="&#xe608;" 
d="M266 350v346l88 -88v-236l-55 -55zM354 229v-235l-88 -89v345l33 34zM742 711l-87 -88h-286l-87 88h460zM742 -111h-460l87 88h286zM666 344l44 -44l-44 -44h-308l-43 44l43 44h308zM670 372v236l88 88v-346l-32 -33zM758 250v-345l-88 89v235l56 55z" />
    <glyph glyph-name="31" unicode="&#xe638;" 
d="M291 -34h275l49 -60l-30 -27q-22 -19 -64 -19h-258l-43 53zM360 355h275l46 -52l-65 -54h-275l-47 54zM684 637h-275l-46 52l65 54h261q23 0 32.5 -4t22.5 -20l16 -22zM585 -23l45 256l65 55l21 -24q17 -20 17 -40q0 -7 -2 -19l-37 -208q-3 -18 -9.5 -28t-21.5 -23
l-32 -26zM653 368l46 255l74 58l16 -18q14 -17 14 -38q0 -9 -4 -29l-33 -193q-6 -30 -26 -48l-42 -37z" />
    <glyph glyph-name="12" unicode="&#xe6a4;" 
d="M628 675v-188l88 -85l52 51v362zM628 98v187l88 85l52 -50v-363z" />
    <glyph glyph-name="icon-test" unicode="&#xe644;" 
d="M243 439v375l96 -95v-256l-60 -60zM761 832l-95 -96h-310l-95 96h500zM761 -62h-500l95 95h310zM677 433l48 -48l-48 -48h-333l-47 48l47 48h333zM683 463v256l96 95v-375l-35 -36zM779 331v-375l-96 96v256l61 60z" />
    <glyph glyph-name="icon-test1" unicode="&#xe645;" 
d="M234 441v391l99 -100v-266l-62 -63zM684 434l51 -50l-51 -49h-346l-49 49l49 50h346zM691 466v265l99 100v-390l-36 -38zM790 328v-391l-99 100v267l63 63z" />
    <glyph glyph-name="icon-test2" unicode="&#xe646;" 
d="M338 462l-60 -60l-36 36v377l96 -96v-257zM338 50l-96 -96v375l36 38l60 -60v-257zM761 832l-95 -96h-311l-95 96h501zM761 -64h-501l95 96h311zM779 437l-35 -35l-61 60v256l96 96v-377zM779 -46l-96 96v257l61 60l35 -37v-376z" />
    <glyph glyph-name="icon-test3" unicode="&#xe647;" 
d="M242 438v377l96 -96v-257l-60 -60zM338 307v-257l-96 -96v375l36 38zM761 832l-95 -96h-311l-95 96h501zM761 -64h-501l95 96h311zM677 432l48 -48l-48 -48h-334l-47 48l47 48h334zM683 462v256l96 96v-377l-35 -35zM779 330v-376l-96 96v257l61 60z" />
    <glyph glyph-name="icon-test4" unicode="&#xe6be;" 
d="M243 438v377l96 -96v-257l-60 -60zM762 832l-95 -96h-311l-95 96h501zM762 -64h-501l95 96h311zM678 432l48 -48l-48 -48h-335l-46 48l46 48h335zM780 329v-375l-96 96v256l61 60z" />
    <glyph glyph-name="icon-test5" unicode="&#xe6bf;" 
d="M758 832l-97 -98h-317l-96 98h510zM678 456v261l98 97v-383l-36 -37zM776 320v-384l-98 98v263l62 61z" />
    <glyph glyph-name="icon-test6" unicode="&#xe6c0;" 
d="M243 439v375l96 -95v-256l-60 -60zM761 832l-95 -96h-310l-95 96h500zM761 -62h-500l95 95h310zM677 433l48 -48l-48 -48h-333l-47 48l47 48h333zM683 463v256l96 95v-375l-35 -36zM779 331v-375l-96 96v256l61 60z" />
    <glyph glyph-name="icon-test7" unicode="&#xe628;" 
d="M328 323l-55 -314l-85 -70l-21 25q-17 20 -17 41q0 9 2 15l53 303l71 59zM292 -5h302l60 -74l-38 -30q-29 -19 -61 -19h-270q-38 0 -56 19l-24 30zM403 753l-55 -308l-73 -63l-50 63l48 267q5 37 10 47q7 13 22 24l45 38zM734 773h-306l-58 67l33 30q28 26 61 26h280
q34 0 55 -26l22 -29zM621 10l55 313l73 61l50 -61l-48 -267q-8 -43 -10 -49q-5 -10 -22 -22l-48 -36zM698 445l55 308l87 68l17 -21q19 -24 19 -44q0 -12 -2 -19l-51 -290l-77 -63z" />
    <glyph glyph-name="icon-test8" unicode="&#xe629;" 
d="M372 833l-67 -376l-68 -59l-25 29q-21 23 -21 47q0 4 4 31l58 328l71 63zM326 445h302l50 -61l-77 -58h-249q-46 0 -65 17l-36 39zM741 305l-67 -373l-70 -60l-49 60l65 373l69 59zM833 831l-65 -374l-70 -59l-49 61l64 372l72 65z" />
    <glyph glyph-name="icon-test9" unicode="&#xe62a;" 
d="M346 309l-52 -299l-81 -66l-25 32q-16 21 -16 36q0 5 4 26l46 262l77 67zM314 -5h302l56 -72l-29 -24q-18 -16 -35 -22q-16 -5 -48 -5h-232q-34 0 -52 3q-12 5 -27 23l-20 25zM425 758l-53 -297l-70 -58l-53 58l48 268q6 25 12 36q9 15 24 25l39 33zM394 445h272
q23 0 34 -5q12 -6 24 -22l27 -34l-75 -61h-304l-53 61zM777 773h-328l-56 67l37 32q11 11 31 19q15 5 42 5h294l55 -60zM642 7l53 298l71 59l31 -38q15 -18 15 -34t-5 -46l-36 -203q-5 -30 -12 -43q-8 -17 -25 -29l-39 -34z" />
    <glyph glyph-name="icon-test10" unicode="&#xe62b;" 
d="M247 -5h328l56 -67l-37 -32q-11 -11 -31 -19q-15 -5 -42 -5h-294l-55 60zM382 761l-53 -298l-70 -57l-32 36q-15 15 -15 34q0 16 5 45l36 203q5 29 12 42q6 13 25 29l39 34zM630 323h-272q-23 0 -34 5q-12 6 -24 22l-27 34l75 61h304l53 -61zM710 773h-302l-58 72l29 24
q19 16 36 22q15 5 48 5h233q39 0 52 -5t27 -24l20 -22zM599 10l53 297l73 62l50 -62l-48 -268q-6 -25 -12 -36q-9 -15 -24 -25l-39 -33zM678 459l52 300l81 65l25 -30q16 -21 16 -38q0 -5 -4 -26l-46 -259l-77 -70z" />
  </font>
</defs>
</svg>
